<svg height="512" viewBox="0 0 64 64" width="512" xmlns="http://www.w3.org/2000/svg"><circle cx="32" cy="32" fill="#e4e4e4" r="31"/><circle cx="32" cy="32" fill="#5c4535" r="28"/><circle cx="32" cy="32" fill="#ffffec" r="26"/><circle cx="32" cy="32" fill="#da3427" r="26"/><path d="m54.81 13.913a2.472 2.472 0 0 0 -.771.828 27.935 27.935 0 0 1 3.153 5.028 2.426 2.426 0 0 0 2.274-2.14 30.94 30.94 0 0 0 -2.494-3.993 2.49 2.49 0 0 0 -2.162.277z" fill="#a0775b"/><path d="m43.377 58.8a2.472 2.472 0 0 0 -.588-.958 28.054 28.054 0 0 1 -20.64.37 2.455 2.455 0 0 0 -.172 3.121 31 31 0 0 0 21.1-.378 2.487 2.487 0 0 0 .3-2.155z" fill="#a0775b"/><path d="m54.725 50.19a2.48 2.48 0 0 0 -.973-.565 28.136 28.136 0 0 1 -7.206 6.3 2.458 2.458 0 0 0 2.354 2.06 31.178 31.178 0 0 0 6.582-5.755 2.489 2.489 0 0 0 -.757-2.04z" fill="#a0775b"/><path d="m60.953 20.921a2.451 2.451 0 0 0 -3.112.284 28.047 28.047 0 0 1 1 18.757 2.458 2.458 0 0 0 1.019.484 2.475 2.475 0 0 0 2.111-.525 31.052 31.052 0 0 0 -1.022-19z" fill="#a0775b"/><path d="m5.73 19.448a2.472 2.472 0 0 0 1.078.321 28.056 28.056 0 0 1 3.152-5.028 2.452 2.452 0 0 0 -2.931-1.106 30.987 30.987 0 0 0 -2.5 4 2.488 2.488 0 0 0 1.201 1.813z" fill="#a0775b"/><path d="m17.023 56.964a2.477 2.477 0 0 0 .43-1.036 28.145 28.145 0 0 1 -7.2-6.3 2.452 2.452 0 0 0 -1.728 2.6 31.136 31.136 0 0 0 6.575 5.757 2.484 2.484 0 0 0 1.923-1.021z" fill="#a0775b"/><path d="m4.135 40.446a2.47 2.47 0 0 0 1.02-.485 28.042 28.042 0 0 1 1-18.755 2.45 2.45 0 0 0 -3.112-.285 31.043 31.043 0 0 0 -1.021 19 2.473 2.473 0 0 0 2.109.524z" fill="#a0775b"/><path d="m60.382 40.5a2.486 2.486 0 0 1 -.518-.055 2.458 2.458 0 0 1 -1.019-.484 27.925 27.925 0 0 1 -5.093 9.664 2.453 2.453 0 0 1 1.727 2.6 31.268 31.268 0 0 1 -3.079 3.11 30.959 30.959 0 0 0 10.011-17.3q-.187.951-.432 1.881a2.5 2.5 0 0 1 -1.597.584z" fill="#886454"/><path d="m58.269 19.448a2.468 2.468 0 0 1 -1.077.321q.343.706.649 1.436a2.451 2.451 0 0 1 3.112-.284 30.888 30.888 0 0 0 -2.653-5.321q.618.992 1.163 2.03a2.485 2.485 0 0 1 -1.194 1.818z" fill="#886454"/><path d="m9.189 13.913a2.472 2.472 0 0 1 .771.828 27.982 27.982 0 0 1 44.079 0 2.451 2.451 0 0 1 2.933-1.105 30.993 30.993 0 0 0 -51.243 1.913q.615-.982 1.3-1.914a2.483 2.483 0 0 1 2.16.278z" fill="#886454"/><path d="m21.6 59.192a2.46 2.46 0 0 1 .553-.979 27.9 27.9 0 0 1 -4.7-2.285 2.457 2.457 0 0 1 -2.35 2.057 30.893 30.893 0 0 0 6.874 3.349 2.484 2.484 0 0 1 -.377-2.142z" fill="#886454"/><path d="m46.976 56.964a2.479 2.479 0 0 1 -.43-1.035 27.964 27.964 0 0 1 -3.76 1.915 2.452 2.452 0 0 1 .283 3.113c-.4.154-.809.3-1.219.435a30.815 30.815 0 0 0 7.05-3.407 2.483 2.483 0 0 1 -1.924-1.021z" fill="#886454"/><path d="m5.2 20.617a2.467 2.467 0 0 1 .958.589q.3-.729.649-1.437a2.426 2.426 0 0 1 -2.275-2.138q.546-1.04 1.168-2.031a30.807 30.807 0 0 0 -2.65 5.321 2.488 2.488 0 0 1 2.15-.304z" fill="#886454"/><path d="m10.248 49.625a27.925 27.925 0 0 1 -5.093-9.664 2.468 2.468 0 0 1 -3.129-.039q-.246-.93-.433-1.882a30.885 30.885 0 0 0 6.927 14.188 2.452 2.452 0 0 1 1.728-2.6z" fill="#886454"/><path d="m32 50a26.006 26.006 0 0 1 -25.693-22 26 26 0 1 0 51.386 0 26.006 26.006 0 0 1 -25.693 22z" fill="#91000c"/><path d="m51.093 49.365a3.765 3.765 0 0 1 -1.623 1.06c-1.669.426-3.161-1.2-4.86-1.471a5.212 5.212 0 0 0 -3.939 1.435 26.158 26.158 0 0 1 -3.363 2.737 3.736 3.736 0 0 1 -4.066.043c-.9-.7-1.254-1.921-2.012-2.783a.8.8 0 0 0 -.51-.321.7.7 0 0 0 -.469.19c-.975.787-.877 2.339-1.546 3.409-.995 1.592-3.319 1.595-5.027.872a9.341 9.341 0 0 1 -4.348-3.815 22.781 22.781 0 0 0 -1.49-2.566c-1.826-2.32-5.173-2.6-7.587-4.263a7.611 7.611 0 0 1 -3.235-5.617 7.043 7.043 0 0 1 2.536-5.934 2.444 2.444 0 0 0 .749-.756 2.139 2.139 0 0 0 .115-1.12l-.326-4.247c-.106-1.394-.142-2.991.849-3.954.955-.928 2.5-.88 3.568-1.664s1.45-2.225 2.072-3.425a15.538 15.538 0 0 1 3.289-3.914 20.188 20.188 0 0 1 4.137-3.3 6.647 6.647 0 0 1 5.081-.724c.794.251 1.516.7 2.3.967 2.041.693 4.253.116 6.382-.2a11.047 11.047 0 0 1 5.341.28 5.418 5.418 0 0 1 3.576 3.81c.4 1.974-.6 3.927-.977 5.9a9.839 9.839 0 0 0 2.839 8.846c1.006.946 2.206 1.656 3.222 2.591a10.124 10.124 0 0 1 1.629 12.869 3.97 3.97 0 0 0 -.725 2.366 4.9 4.9 0 0 1 -1.582 2.699z" fill="#7a000a"/><path d="m7.018 38.275a7.611 7.611 0 0 0 3.235 5.617c2.414 1.666 5.761 1.943 7.587 4.263a22.781 22.781 0 0 1 1.49 2.566 9.341 9.341 0 0 0 4.348 3.815c1.708.723 4.032.72 5.027-.872.669-1.07.571-2.622 1.546-3.409a.706.706 0 0 1 .469-.19.8.8 0 0 1 .51.321c.758.862 1.112 2.078 2.012 2.783a3.736 3.736 0 0 0 4.066-.043 26.158 26.158 0 0 0 3.363-2.737 5.212 5.212 0 0 1 3.939-1.435c1.7.273 3.191 1.9 4.86 1.471a3.765 3.765 0 0 0 1.623-1.06 4.9 4.9 0 0 0 1.586-2.7 3.97 3.97 0 0 1 .721-2.365 10.263 10.263 0 0 0 1.58-6.035 9.9 9.9 0 0 0 -.245-1.659 25.988 25.988 0 0 1 -46.688-2.53 7.179 7.179 0 0 0 -1.029 4.199z" fill="#690009"/><path d="m43.316 12.28a3.018 3.018 0 0 1 1.41 3.97l-5.389 11.87c-.07-.08-.14-.16-.22-.24a3 3 0 0 0 -5.117 2.12v-4.14l5.72-12.58v-.01l.01-.02a2.9 2.9 0 0 1 2.37-1.25 2.82 2.82 0 0 1 1.216.28z" fill="#ff8340"/><path d="m38.317 9.28a3.018 3.018 0 0 1 1.41 3.97l-.01.02v.01l-5.717 12.58v-.86a2.993 2.993 0 0 0 -5.019-2.21l5.479-12.07a2.9 2.9 0 0 1 2.64-1.72 2.821 2.821 0 0 1 1.217.28z" fill="#ff8340"/><path d="m28.128 49.91a2.984 2.984 0 0 1 -4.22 4.22l-14.038-14.04a2.984 2.984 0 0 1 4.219-4.22z" fill="#ff8340"/><path d="m28 45a1.77 1.77 0 0 0 .01.23 2.98 2.98 0 0 1 -4.1-.1l-2.91-2.91-11.13-11.13a2.984 2.984 0 0 1 4.219-4.22l1.911 1.91 6 6 6 6z" fill="#ff8340"/><path d="m22 33v1.78l-6-6v-8.78a3 3 0 0 1 6 0z" fill="#ff8340"/><path d="m28 24.93v8.07a3 3 0 1 1 -6 0v-20a3 3 0 0 1 6 0z" fill="#ff8340"/><path d="m40 30v20a3 3 0 0 1 -6 0v-20a3 3 0 0 1 5.12-2.12c.08.08.15.16.22.24a3 3 0 0 1 .66 1.88z" fill="#ff8340"/><path d="m34 30v15a3 3 0 0 1 -5.989.23 1.77 1.77 0 0 1 -.011-.23v-20.07a3.016 3.016 0 0 1 3-2.93 3 3 0 0 1 3 3z" fill="#ff8340"/><path d="m40 46.31-.51-.13a1.923 1.923 0 0 1 -1.49-1.84v-2.22l19 4.88v1.1a1.963 1.963 0 0 1 -2.01 1.9 2.2 2.2 0 0 1 -.5-.06z" fill="#e35f17"/><path d="m57 46.76v.24l-19-4.88 2.04-1.05 15.42-7.93.07-.03a1 1 0 0 1 1.47.87z" fill="#ffaf85"/><path d="m54.435 43.019a2.765 2.765 0 0 1 -1.874.419 2.484 2.484 0 0 1 -1.309-.88c-.346-.409-.616-.875-.939-1.3a6.579 6.579 0 0 0 -2.193-1.858 2.359 2.359 0 0 1 -1.045-.77 1.283 1.283 0 0 1 -.023-1.125c.009-.023.027-.04.038-.062l-7.05 3.627-2.04 1.05 19 4.88v-5.65c-.871.499-1.68 1.181-2.565 1.669z" fill="#ff8340"/><path d="m52.561 42.438a2.484 2.484 0 0 1 -1.309-.88c-.346-.409-.616-.875-.939-1.3a6.579 6.579 0 0 0 -2.193-1.858 2.359 2.359 0 0 1 -1.045-.77c-.016-.028-.022-.059-.035-.087a1.272 1.272 0 0 0 .035 1.087 2.359 2.359 0 0 0 1.045.77 6.579 6.579 0 0 1 2.193 1.854c.323.427.593.893.939 1.3a2.484 2.484 0 0 0 1.309.88 2.765 2.765 0 0 0 1.874-.419c.885-.488 1.694-1.17 2.565-1.669v-1c-.871.5-1.68 1.181-2.565 1.669a2.765 2.765 0 0 1 -1.874.423z" fill="#eb8a56"/><path d="m41.962 45.423c.716.274 1.363.7 2.062 1.012a11.041 11.041 0 0 0 5.48.677 7.215 7.215 0 0 1 3.794.249 17.5 17.5 0 0 1 2.129 1.617 4.73 4.73 0 0 0 .946.494 1.836 1.836 0 0 0 .627-1.372v-1.1l-19-4.88v2.22a1.828 1.828 0 0 0 .336 1.044 5.4 5.4 0 0 1 3.626.039z" fill="#c95414"/><path d="m31.14 44.1a3.566 3.566 0 0 1 -.631-3.31c.264-1.143.8-2.211 1.031-3.362a6.4 6.4 0 0 0 .06-2.128c-.091-.646-.281-1.276-.372-1.922-.118-.837-.07-1.695-.249-2.521a8.812 8.812 0 0 0 -1.234-2.667 11.222 11.222 0 0 1 -1.333-2.624 3.97 3.97 0 0 1 -.095-1.89 2.978 2.978 0 0 0 -.317 1.254v20.07a1.77 1.77 0 0 0 .01.23 3 3 0 0 0 5.986-.2 4.159 4.159 0 0 1 -2.856-.93z" fill="#e65f16"/><path d="m37.14 49.1a3.566 3.566 0 0 1 -.631-3.31c.264-1.143.8-2.211 1.031-3.362a6.4 6.4 0 0 0 .06-2.128c-.091-.646-.281-1.276-.372-1.922-.118-.837-.07-1.7-.249-2.521a8.812 8.812 0 0 0 -1.234-2.667 11.222 11.222 0 0 1 -1.333-2.624 3.97 3.97 0 0 1 -.095-1.89 2.978 2.978 0 0 0 -.317 1.254v20.07a1.77 1.77 0 0 0 .01.23 3 3 0 0 0 5.986-.2 4.159 4.159 0 0 1 -2.856-.93z" fill="#e65f16"/><path d="m26.712 51.921a2.646 2.646 0 0 1 -2.023-1.021c-.521-.582-.9-1.276-1.419-1.864-1.313-1.5-3.348-2.166-4.795-3.535-1.512-1.432-2.263-3.513-3.722-5a13.483 13.483 0 0 0 -3.126-2.178 4.847 4.847 0 0 1 -1.582-1.193 2.346 2.346 0 0 1 -.414-.969 2.984 2.984 0 0 0 .241 3.923l14.038 14.046a2.974 2.974 0 0 0 4.755-3.457 2.928 2.928 0 0 1 -1.953 1.248z" fill="#e65f16"/><path d="m21 42.22 2.909 2.91a2.98 2.98 0 0 0 4.1.1 1.77 1.77 0 0 1 -.009-.23v-4.22l-.635-.635a10.046 10.046 0 0 1 -1.119 1.537c-.353.394-.844.791-1.354.651-.432-.118-.669-.568-.87-.968a19.949 19.949 0 0 0 -1.137-1.965 6.8 6.8 0 0 0 -1.526-1.755 24.551 24.551 0 0 0 -3.471-1.613c-2.734-1.446-3.986-4.678-6.311-6.718a5.653 5.653 0 0 1 -1.445-1.5 1.673 1.673 0 0 1 -.158-1.018c-.033.029-.07.051-.1.082a2.994 2.994 0 0 0 0 4.22z" fill="#e65f16"/><path d="m25.14 32.1a3.566 3.566 0 0 1 -.631-3.31c.264-1.143.8-2.211 1.031-3.362a6.4 6.4 0 0 0 .06-2.128c-.091-.646-.281-1.276-.372-1.922-.118-.837-.07-1.7-.249-2.521a8.812 8.812 0 0 0 -1.234-2.667 11.222 11.222 0 0 1 -1.333-2.624 3.97 3.97 0 0 1 -.095-1.89 2.978 2.978 0 0 0 -.317 1.254v20.07a1.77 1.77 0 0 0 .01.23 3 3 0 0 0 5.986-.2 4.159 4.159 0 0 1 -2.856-.93z" fill="#e65f16"/><path d="m20.128 27.294a3.287 3.287 0 0 1 -1.328-1.013 2.983 2.983 0 0 1 -.349-2.011 15.568 15.568 0 0 0 .237-2.069 10.627 10.627 0 0 0 -.8-3.011 5.829 5.829 0 0 1 -.33-1.8 2.984 2.984 0 0 0 -1.558 2.61v8.78l6 6v-6.905a5.1 5.1 0 0 1 -1.872-.581z" fill="#e65f16"/><path d="m20.82 27.594a6 6 0 0 1 -.536 2.319.5.5 0 0 1 -.348.295.487.487 0 0 1 -.369-.194 10.9 10.9 0 0 1 -1.088-2.051 1.507 1.507 0 0 0 -.55-.581 1.907 1.907 0 0 0 -.536-.165c-.467-.092-.936-.18-1.394-.308v1.871l6 6v-6.905a4.18 4.18 0 0 1 -1.179-.281z" fill="#db4f02"/><path d="m39.2 12.05c-.659.691-1.487 1.2-2.149 1.893a5.681 5.681 0 0 0 -1.533 3.274c-.08.714-.022 1.437-.1 2.151a2.861 2.861 0 0 1 -.87 1.912.558.558 0 0 1 -.36.162.628.628 0 0 1 -.288-.1 8.4 8.4 0 0 1 -1.29-.909 6.583 6.583 0 0 0 -1.322-1.021 2.533 2.533 0 0 0 -.681-.208l-1.63 3.59a3 3 0 0 1 5.023 2.206v.86l5.72-12.58v-.01l.01-.02a3.04 3.04 0 0 0 .137-2.128 3.968 3.968 0 0 1 -.667.928z" fill="#e65f16"/><path d="m42.29 14.328a5.93 5.93 0 0 0 -.638 3.341 11.524 11.524 0 0 1 -.159 3.433 3.836 3.836 0 0 1 -3.147 2.849 11.08 11.08 0 0 1 -2.846-.431c-.135-.023-.274-.04-.413-.052l-1.087 2.392v4.14a3 3 0 0 1 5.12-2.12c.08.08.15.16.22.24l5.389-11.87a3.035 3.035 0 0 0 -.542-3.325 3.36 3.36 0 0 0 -1.897 1.403z" fill="#db4f02"/><circle cx="50" cy="23" fill="#fcd83c" r="5.999"/><path d="m61.439 22.28a17.935 17.935 0 0 1 -4.189 7.759 10.082 10.082 0 0 1 -14.29 0 10.1 10.1 0 0 1 0-14.288 13.024 13.024 0 0 1 1.98-1.6 18.106 18.106 0 0 1 3.3-1.749 17.246 17.246 0 0 1 6.57-1.402 7.385 7.385 0 0 1 5.3 1.89c2.139 2.141 2.279 5.831 1.329 9.39zm-5.439.72a6 6 0 1 0 -6 6 6 6 0 0 0 6-6z" fill="#fffae8"/><path d="m44.96 28.039a10.092 10.092 0 0 1 -.919-13.229 12.219 12.219 0 0 0 -1.081.941 10.1 10.1 0 1 0 14.29 14.288 12.344 12.344 0 0 0 .956-1.1 9.993 9.993 0 0 1 -13.246-.9z" fill="#fff2c4"/><path d="m60.11 12.892a7.385 7.385 0 0 0 -5.3-1.892 17.246 17.246 0 0 0 -6.57 1.4 18.106 18.106 0 0 0 -3.3 1.749 13.024 13.024 0 0 0 -1.98 1.6 10.128 10.128 0 0 0 -.919 1.059c.287-.224.581-.447.9-.659a18.106 18.106 0 0 1 3.3-1.749 17.246 17.246 0 0 1 6.569-1.4 7.385 7.385 0 0 1 5.3 1.89c2.139 2.139 2.279 5.829 1.329 9.388a19.015 19.015 0 0 1 -3.233 6.657 10.329 10.329 0 0 0 1.044-.9 17.935 17.935 0 0 0 4.189-7.759c.95-3.555.81-7.245-1.329-9.384z" fill="#fff2c4"/><path d="m46 21a5.956 5.956 0 0 1 .883-3.117 5.994 5.994 0 1 0 8.235 8.233 5.988 5.988 0 0 1 -9.118-5.116z" fill="#f6a635"/><path d="m44 23a5.956 5.956 0 0 1 .883-3.117 5.994 5.994 0 1 0 8.235 8.233 5.988 5.988 0 0 1 -9.118-5.116z" fill="#ffefb5"/><path d="m49.659 18.252a1.479 1.479 0 0 0 -.8 1.049 1.748 1.748 0 0 0 .433 1.237 3.959 3.959 0 0 0 1.957 1.371 1.232 1.232 0 0 0 .917 0c.791-.4.837-2.183.436-2.89a2.271 2.271 0 0 0 -2.943-.767z" fill="#ffef96"/><path d="m54.236 34.1a2.248 2.248 0 0 0 -.584.385l-1.19.977a1.405 1.405 0 0 0 -.367.39.955.955 0 0 0 .006.842 1.776 1.776 0 0 0 .557.641 3.355 3.355 0 0 0 1.455.638 1.009 1.009 0 0 0 .548-.022 1.188 1.188 0 0 0 .475-.436 4.1 4.1 0 0 0 .854-1.993 1.7 1.7 0 0 0 -.2-1.049 1.323 1.323 0 0 0 -1.554-.373z" fill="#ffcbb0"/><g fill="#ffb15c"><path d="m12.01 35.5a1.371 1.371 0 0 0 -.666.119.6.6 0 0 0 -.343.533c.02.284.293.478.543.626.349.2.705.4 1.031.638a6.528 6.528 0 0 0 1.489 1.027.584.584 0 0 0 .412.029.548.548 0 0 0 .2-.153c1.264-1.394-1.482-2.791-2.666-2.819z"/><path d="m25.276 47.659a10.512 10.512 0 0 0 -1.868-1.675l-3.081-2.342a2.451 2.451 0 0 0 -1.32-.642 3.214 3.214 0 0 0 1.318 2.474l5.4 5.038c.541.505 1.722.919 1.1-.368a13.1 13.1 0 0 0 -1.549-2.485z"/><path d="m12.01 26.5a1.371 1.371 0 0 0 -.666.119.6.6 0 0 0 -.343.533c.02.284.293.478.543.626.349.205.705.4 1.031.638a6.528 6.528 0 0 0 1.489 1.027.584.584 0 0 0 .412.029.548.548 0 0 0 .2-.153c1.264-1.394-1.482-2.791-2.666-2.819z"/><path d="m22.276 35.659a10.512 10.512 0 0 0 -1.868-1.675l-3.081-2.342a2.451 2.451 0 0 0 -1.32-.642 3.214 3.214 0 0 0 1.318 2.474l5.4 5.038c.541.505 1.722.919 1.1-.368a13.1 13.1 0 0 0 -1.549-2.485z"/><path d="m30.805 23.125a1.646 1.646 0 0 0 -.781 1.714 4.386 4.386 0 0 0 .908 1.642 16.539 16.539 0 0 1 1.568 3.764c.128.358.34.77.671.755a.645.645 0 0 0 .459-.33 3.109 3.109 0 0 0 .37-1.754 11.219 11.219 0 0 0 -.885-4.242c-.407-.953-1.274-2.049-2.31-1.549z"/><path d="m36.805 28.125a1.646 1.646 0 0 0 -.781 1.714 4.386 4.386 0 0 0 .908 1.642 16.539 16.539 0 0 1 1.568 3.764c.128.358.34.77.671.755a.645.645 0 0 0 .459-.33 3.109 3.109 0 0 0 .37-1.754 11.219 11.219 0 0 0 -.885-4.242c-.407-.953-1.274-2.049-2.31-1.549z"/><path d="m31.317 41.133a1.557 1.557 0 0 0 -.317.767 1.15 1.15 0 0 0 .26.7.813.813 0 0 0 .621.4c.313-.014.547-.357.69-.7a6.361 6.361 0 0 0 .406-1.887 3.132 3.132 0 0 0 0-.78c-.112-.7-.518-.882-.8-.245a13.856 13.856 0 0 1 -.86 1.745z"/><path d="m24.805 11.125a1.646 1.646 0 0 0 -.781 1.714 4.386 4.386 0 0 0 .908 1.642 16.539 16.539 0 0 1 1.568 3.764c.128.358.34.77.671.755a.645.645 0 0 0 .459-.33 3.109 3.109 0 0 0 .37-1.754 11.219 11.219 0 0 0 -.885-4.242c-.407-.953-1.274-2.049-2.31-1.549z"/><path d="m25.317 29.133a1.557 1.557 0 0 0 -.317.767 1.15 1.15 0 0 0 .26.7.813.813 0 0 0 .621.4c.313-.014.547-.357.69-.7a6.361 6.361 0 0 0 .406-1.887 3.132 3.132 0 0 0 0-.78c-.112-.7-.518-.882-.8-.245a13.856 13.856 0 0 1 -.86 1.745z"/><path d="m20.05 18.04a1.59 1.59 0 0 0 -1.169.146.828.828 0 0 0 -.2.887c.148.576.521 1.1.671 1.673a3.088 3.088 0 0 0 .249.845.8.8 0 0 0 .837.39.917.917 0 0 0 .355-.2c1.196-.994 1.269-3.476-.743-3.741z"/><path d="m34.337 12.529a2.346 2.346 0 0 0 -.337 1.027.507.507 0 0 0 .044.259.269.269 0 0 0 .109.1.978.978 0 0 0 1.1-.255c.331-.281.618-.666.951-.94.552-.454 1.241-.617 1.652-1.323a.875.875 0 0 0 .126-.642.651.651 0 0 0 -.212-.308 1.212 1.212 0 0 0 -1.87-.01 6.825 6.825 0 0 0 -1.563 2.092z"/><path d="m32.13 16.77a2.2 2.2 0 0 0 -.128.813 2.115 2.115 0 0 0 .345 1 1.175 1.175 0 0 0 .309.364.27.27 0 0 0 .364-.033 1.074 1.074 0 0 0 .169-.31l.528-1.272a2.124 2.124 0 0 0 0-2.1c-.414-.589-.752.084-1.069.554a4.121 4.121 0 0 0 -.518.984z"/><path d="m37.13 20.77a2.2 2.2 0 0 0 -.128.813 2.115 2.115 0 0 0 .345 1 1.175 1.175 0 0 0 .309.364.27.27 0 0 0 .364-.033 1.074 1.074 0 0 0 .169-.31l.528-1.272a2.124 2.124 0 0 0 0-2.1c-.414-.589-.752.084-1.069.554a4.121 4.121 0 0 0 -.518.984z"/></g><ellipse cx="41.996" cy="51.75" fill="#cc3a27" rx=".574" ry=".413" transform="matrix(.707 -.707 .707 .707 -24.29 44.83)"/><ellipse cx="36.996" cy="54.75" fill="#cc3a27" rx=".574" ry=".413" transform="matrix(.707 -.707 .707 .707 -27.874 42.174)"/><ellipse cx="8.996" cy="24.75" fill="#ea6524" rx=".574" ry=".413" transform="matrix(.707 -.707 .707 .707 -14.862 13.602)"/><ellipse cx="42.996" cy="48.75" fill="#cc3a27" rx=".574" ry=".413" transform="matrix(.707 -.707 .707 .707 -21.877 44.659)"/><ellipse cx="33.996" cy="8.75" fill="#ea6524" rx=".413" ry=".574"/><ellipse cx="8.996" cy="33.75" fill="#91000c" rx=".413" ry=".574"/><ellipse cx="7.996" cy="29.75" fill="#ea6524" rx=".413" ry=".574"/><ellipse cx="9.996" cy="22.75" fill="#ea6524" rx=".413" ry=".574" transform="matrix(.707 -.707 .707 .707 -13.156 13.724)"/><ellipse cx="30.996" cy="9.75" fill="#ea6524" rx=".413" ry=".574" transform="matrix(.707 -.707 .707 .707 2.179 24.763)"/><ellipse cx="45.996" cy="50.75" fill="#cc3a27" rx=".413" ry=".574" transform="matrix(.707 -.707 .707 .707 -22.413 47.365)"/><ellipse cx="28.996" cy="8.75" fill="#ea6524" rx=".413" ry=".574"/><ellipse cx="12.996" cy="46.75" fill="#cc3a27" rx=".413" ry=".574"/><ellipse cx="10.996" cy="42.75" fill="#91000c" rx=".413" ry=".574"/><ellipse cx="30.25" cy="49.25" fill="#91000c" rx=".825" ry="1.148" transform="matrix(.707 -.707 .707 .707 -25.97 35.834)"/><ellipse cx="13.25" cy="24.25" fill="#cc3a27" rx=".825" ry="1.148"/><ellipse cx="41.25" cy="54.25" fill="#cc3a27" rx=".825" ry="1.148"/><ellipse cx="32.25" cy="50.25" fill="#cc3a27" rx=".825" ry="1.148"/><ellipse cx="40.996" cy="34.75" fill="#91000c" rx=".574" ry=".413" transform="matrix(.707 -.707 .707 .707 -12.566 39.148)"/><ellipse cx="26.996" cy="36.75" fill="#91000c" rx=".574" ry=".413" transform="matrix(.707 -.707 .707 .707 -18.077 29.837)"/><ellipse cx="29.996" cy="15.75" fill="#cc3a27" rx=".574" ry=".413" transform="matrix(.707 -.707 .707 .707 -2.355 25.812)"/><ellipse cx="44.996" cy="33.75" fill="#cc3a27" rx=".413" ry=".574"/><ellipse cx="45.996" cy="36.75" fill="#91000c" rx=".413" ry=".574"/><ellipse cx="40.996" cy="30.75" fill="#cc3a27" rx=".413" ry=".574" transform="matrix(.707 -.707 .707 .707 -9.739 37.978)"/><ellipse cx="16.996" cy="13.75" fill="#ea6524" rx=".413" ry=".574"/><ellipse cx="18.996" cy="15.75" fill="#cc3a27" rx=".413" ry=".574"/><ellipse cx="43.25" cy="37.25" fill="#91000c" rx=".825" ry="1.148" transform="matrix(.707 -.707 .707 .707 -13.671 41.512)"/><ellipse cx="18.25" cy="51.25" fill="#cc3a27" rx=".825" ry="1.148" transform="matrix(.707 -.707 .707 .707 -30.902 27.932)"/><ellipse cx="13.25" cy="20.25" fill="#ea6524" rx="1.719" ry="1.235" transform="matrix(.707 -.707 .707 .707 -10.436 15.292)"/><ellipse cx="19.25" cy="12.25" fill="#ea6524" rx="1.719" ry="1.235" transform="matrix(.707 -.707 .707 .707 -3.026 17.192)"/><ellipse cx="31.25" cy="55.25" fill="#cc3a27" rx="1.148" ry=".825"/><ellipse cx="31.25" cy="12.25" fill="#cc3a27" rx=".825" ry="1.148"/><path d="m30.72 8.97a.984.984 0 0 1 0 1.37l-1.38 1.38a.984.984 0 0 1 -1.37 0l-.69-.69a.984.984 0 0 1 0-1.37l1.38-1.38a.984.984 0 0 1 1.37 0z" fill="#7eb04f"/><path d="m13.72 21.66a.978.978 0 0 1 0 1.37l-.69.69a.984.984 0 0 1 -1.37 0l-1.38-1.38a.978.978 0 0 1 -.21-1.05 1.108 1.108 0 0 1 .21-.32l.69-.69a.984.984 0 0 1 1.37 0z" fill="#7eb04f"/><rect fill="#7eb04f" height="3" rx="1" width="4" x="24" y="26"/><path d="m52.72 38.97a.984.984 0 0 1 0 1.37l-1.38 1.38a.984.984 0 0 1 -1.37 0l-.69-.69a.984.984 0 0 1 0-1.37l1.38-1.38a.984.984 0 0 1 1.37 0z" fill="#7eb04f"/><path d="m32 40v1a1 1 0 0 1 -1 1h-2a1 1 0 0 1 -1-1v-1a1 1 0 0 1 1-1h2a1 1 0 0 1 1 1z" fill="#7eb04f"/><path d="m43.72 50.97a.984.984 0 0 1 0 1.37l-1.38 1.38a.984.984 0 0 1 -1.37 0l-.69-.69a.984.984 0 0 1 0-1.37l1.38-1.38a.984.984 0 0 1 1.37 0z" fill="#7eb04f"/><path d="m32.72 53.66a.984.984 0 0 1 0 1.37l-.69.69a.978.978 0 0 1 -1.37 0l-1.38-1.38a.978.978 0 0 1 -.21-1.05 1.108 1.108 0 0 1 .21-.32l.69-.69a.984.984 0 0 1 1.37 0z" fill="#7eb04f"/><path d="m19.72 36.66a.984.984 0 0 1 0 1.37l-.69.69a.984.984 0 0 1 -1.37 0l-1.38-1.38a.984.984 0 0 1 0-1.37l.69-.69a.984.984 0 0 1 1.37 0z" fill="#7eb04f"/><path d="m31.66 54.72-1.38-1.38a.971.971 0 0 1 -.122-1.182.945.945 0 0 0 -.188.122l-.69.69a.984.984 0 0 0 0 1.37l1.38 1.38a.984.984 0 0 0 1.37 0l.69-.69a.945.945 0 0 0 .122-.188.971.971 0 0 1 -1.182-.122z" fill="#5f873b"/><path d="m18.66 37.72-1.38-1.38a.971.971 0 0 1 -.122-1.182.945.945 0 0 0 -.188.122l-.69.69a.984.984 0 0 0 0 1.37l1.38 1.38a.984.984 0 0 0 1.37 0l.69-.69a.945.945 0 0 0 .122-.188.971.971 0 0 1 -1.182-.122z" fill="#5f873b"/><path d="m12.66 22.72-1.38-1.38a.971.971 0 0 1 -.122-1.182.945.945 0 0 0 -.188.122l-.69.69a.984.984 0 0 0 0 1.37l1.38 1.38a.984.984 0 0 0 1.37 0l.69-.69a.945.945 0 0 0 .122-.188.971.971 0 0 1 -1.182-.122z" fill="#5f873b"/><path d="m43.72 50.97-.69-.69a.945.945 0 0 0 -.188-.122.971.971 0 0 1 -.122 1.182l-1.38 1.38a.971.971 0 0 1 -1.182.122.945.945 0 0 0 .122.188l.69.69a.984.984 0 0 0 1.37 0l1.38-1.38a.984.984 0 0 0 0-1.37z" fill="#5f873b"/><path d="m52.72 38.97-.69-.69a.945.945 0 0 0 -.188-.122.971.971 0 0 1 -.122 1.182l-1.38 1.38a.971.971 0 0 1 -1.182.122.945.945 0 0 0 .122.188l.69.69a.984.984 0 0 0 1.37 0l1.38-1.38a.984.984 0 0 0 0-1.37z" fill="#5f873b"/><path d="m30.72 8.97-.69-.69a.945.945 0 0 0 -.188-.122.971.971 0 0 1 -.122 1.182l-1.38 1.38a.971.971 0 0 1 -1.182.122.945.945 0 0 0 .122.188l.69.69a.984.984 0 0 0 1.37 0l1.38-1.38a.984.984 0 0 0 0-1.37z" fill="#5f873b"/><path d="m31 41h-2a1 1 0 0 1 -1-1v1a1 1 0 0 0 1 1h2a1 1 0 0 0 1-1v-1a1 1 0 0 1 -1 1z" fill="#5f873b"/><path d="m27 28h-2a1 1 0 0 1 -1-1v1a1 1 0 0 0 1 1h2a1 1 0 0 0 1-1v-1a1 1 0 0 1 -1 1z" fill="#5f873b"/><g fill="#689441"><ellipse cx="43.5" cy="32.5" rx="1.5" ry=".5"/><ellipse cx="36" cy="37.5" rx=".5" ry="1" transform="matrix(.928 -.371 .371 .928 -11.352 16.052)"/><ellipse cx="46" cy="40.5" rx=".5" ry="1" transform="matrix(.928 -.371 .371 .928 -11.751 19.981)"/><ellipse cx="43" cy="22.5" rx=".5" ry="1" transform="matrix(.928 -.371 .371 .928 -5.281 17.579)"/><ellipse cx="24" cy="40.5" rx="1" ry=".5" transform="matrix(.371 -.928 .928 .371 -22.517 47.742)"/><ellipse cx="44" cy="27.5" rx="1" ry=".5" transform="matrix(.371 -.928 .928 .371 2.126 58.14)"/><ellipse cx="18" cy="48.5" rx="1" ry=".5" transform="matrix(.371 -.928 .928 .371 -33.716 47.2)"/><ellipse cx="24" cy="22.5" rx="1" ry=".5" transform="matrix(.371 -.928 .928 .371 -5.804 36.427)"/><ellipse cx="21" cy="26.5" rx=".5" ry="1" transform="matrix(.928 -.371 .371 .928 -8.34 9.695)"/><ellipse cx="14" cy="27.5" rx="1" ry=".5" transform="matrix(.371 -.928 .928 .371 -16.733 30.285)"/><ellipse cx="17" cy="40.5" rx=".5" ry="1" transform="matrix(.928 -.371 .371 .928 -13.825 9.21)"/><ellipse cx="9" cy="33.5" rx="1" ry=".5" transform="matrix(.371 -.928 .928 .371 -25.446 29.415)"/><ellipse cx="34" cy="19.5" rx="1" ry=".5" transform="matrix(.371 -.928 .928 .371 3.267 43.826)"/><ellipse cx="46.5" cy="42.5" rx="1.5" ry=".5" transform="matrix(.707 -.707 .707 .707 -16.433 45.328)"/><ellipse cx="25.5" cy="48.5" rx="1.5" ry=".5" transform="matrix(.707 -.707 .707 .707 -26.826 32.237)"/><ellipse cx="41.5" cy="48.5" rx=".5" ry="1.5" transform="matrix(.707 -.707 .707 .707 -22.14 43.55)"/><ellipse cx="31.5" cy="14.5" rx=".5" ry="1.5"/><ellipse cx="15.5" cy="16.5" rx=".5" ry="1.5" transform="matrix(.707 -.707 .707 .707 -7.127 15.793)"/><ellipse cx="43.5" cy="35.5" rx="1.5" ry=".5" transform="matrix(.707 -.707 .707 .707 -12.361 41.157)"/></g></svg>